<?xml version="1.0" encoding="UTF-8" standalone="no"?>
<!DOCTYPE svg PUBLIC "-//W3C//DTD SVG 1.1//EN"
 "http://www.w3.org/Graphics/SVG/1.1/DTD/svg11.dtd">
<!-- Generated by graphviz version 2.40.1 (20161225.0304)
 -->
<!-- Title: dependencies Pages: 1 -->
<svg width="584pt" height="284pt"
 viewBox="0.00 0.00 584.00 284.00" xmlns="http://www.w3.org/2000/svg" xmlns:xlink="http://www.w3.org/1999/xlink">
<g id="graph0" class="graph" transform="scale(1 1) rotate(0) translate(4 280)">
<title>dependencies</title>
<polygon fill="#ffffff" stroke="transparent" points="-4,4 -4,-280 580,-280 580,4 -4,4"/>
<text text-anchor="start" x="267.0091" y="-42.4" font-family="sans-serif" font-weight="bold" font-size="14.00" fill="#000000">Legend</text>
<polygon fill="#ffffb3" stroke="transparent" points="54,-10 54,-30 74,-30 74,-10 54,-10"/>
<text text-anchor="start" x="77.629" y="-15.4" font-family="sans-serif" font-size="14.00" fill="#000000"> &#160;Declarations</text>
<polygon fill="#8dd3c7" stroke="transparent" points="167,-10 167,-30 187,-30 187,-10 167,-10"/>
<text text-anchor="start" x="190.7251" y="-15.4" font-family="sans-serif" font-size="14.00" fill="#000000"> &#160;Module</text>
<polygon fill="#80b1d3" stroke="transparent" points="253,-10 253,-30 273,-30 273,-10 253,-10"/>
<text text-anchor="start" x="276.7812" y="-15.4" font-family="sans-serif" font-size="14.00" fill="#000000"> &#160;Bootstrap</text>
<polygon fill="#fdb462" stroke="transparent" points="350,-10 350,-30 370,-30 370,-10 350,-10"/>
<text text-anchor="start" x="373.6732" y="-15.4" font-family="sans-serif" font-size="14.00" fill="#000000"> &#160;Providers</text>
<polygon fill="#fb8072" stroke="transparent" points="446,-10 446,-30 466,-30 466,-10 446,-10"/>
<text text-anchor="start" x="469.7258" y="-15.4" font-family="sans-serif" font-size="14.00" fill="#000000"> &#160;Exports</text>
<g id="clust1" class="cluster">
<title>cluster_SharedModule</title>
<polygon fill="none" stroke="#000000" stroke-dasharray="1,5" points="8,-70 8,-268 568,-268 568,-70 8,-70"/>
</g>
<g id="clust2" class="cluster">
<title>cluster_SharedModule_declarations</title>
<polygon fill="none" stroke="#000000" points="16,-78 16,-130 560,-130 560,-78 16,-78"/>
</g>
<g id="clust8" class="cluster">
<title>cluster_SharedModule_exports</title>
<polygon fill="none" stroke="#000000" points="220,-208 220,-260 354,-260 354,-208 220,-208"/>
</g>
<!-- FooterComponent -->
<g id="node1" class="node">
<title>FooterComponent</title>
<polygon fill="#ffffb3" stroke="#000000" points="551.8809,-122 434.1191,-122 434.1191,-86 551.8809,-86 551.8809,-122"/>
<text text-anchor="middle" x="493" y="-99.8" font-family="Times,serif" font-size="14.00" fill="#000000">FooterComponent</text>
</g>
<!-- SharedModule -->
<g id="node5" class="node">
<title>SharedModule</title>
<polygon fill="#8dd3c7" stroke="#000000" points="336.4231,-187 333.4231,-191 312.4231,-191 309.4231,-187 237.5769,-187 237.5769,-151 336.4231,-151 336.4231,-187"/>
<text text-anchor="middle" x="287" y="-164.8" font-family="Times,serif" font-size="14.00" fill="#000000">SharedModule</text>
</g>
<!-- FooterComponent&#45;&gt;SharedModule -->
<g id="edge1" class="edge">
<title>FooterComponent&#45;&gt;SharedModule</title>
<path fill="none" stroke="#000000" d="M493,-122.1061C493,-141.3391 493,-169 493,-169 493,-169 346.3421,-169 346.3421,-169"/>
<polygon fill="#000000" stroke="#000000" points="346.3422,-165.5001 336.3421,-169 346.3421,-172.5001 346.3422,-165.5001"/>
</g>
<!-- HeaderComponent -->
<g id="node2" class="node">
<title>HeaderComponent</title>
<polygon fill="#ffffb3" stroke="#000000" points="415.7437,-122 294.2563,-122 294.2563,-86 415.7437,-86 415.7437,-122"/>
<text text-anchor="middle" x="355" y="-99.8" font-family="Times,serif" font-size="14.00" fill="#000000">HeaderComponent</text>
</g>
<!-- HeaderComponent&#45;&gt;SharedModule -->
<g id="edge2" class="edge">
<title>HeaderComponent&#45;&gt;SharedModule</title>
<path fill="none" stroke="#000000" d="M315.1697,-122.1061C315.1697,-122.1061 315.1697,-140.991 315.1697,-140.991"/>
<polygon fill="#000000" stroke="#000000" points="311.6698,-140.9909 315.1697,-150.991 318.6698,-140.991 311.6698,-140.9909"/>
</g>
<!-- LoginComponent -->
<g id="node3" class="node">
<title>LoginComponent</title>
<polygon fill="#ffffb3" stroke="#000000" points="276.2758,-122 161.7242,-122 161.7242,-86 276.2758,-86 276.2758,-122"/>
<text text-anchor="middle" x="219" y="-99.8" font-family="Times,serif" font-size="14.00" fill="#000000">LoginComponent</text>
</g>
<!-- LoginComponent&#45;&gt;SharedModule -->
<g id="edge3" class="edge">
<title>LoginComponent&#45;&gt;SharedModule</title>
<path fill="none" stroke="#000000" d="M257.0884,-122.1061C257.0884,-122.1061 257.0884,-140.991 257.0884,-140.991"/>
<polygon fill="#000000" stroke="#000000" points="253.5884,-140.9909 257.0884,-150.991 260.5884,-140.991 253.5884,-140.9909"/>
</g>
<!-- SearchComponent -->
<g id="node4" class="node">
<title>SearchComponent</title>
<polygon fill="#ffffb3" stroke="#000000" points="143.9201,-122 24.0799,-122 24.0799,-86 143.9201,-86 143.9201,-122"/>
<text text-anchor="middle" x="84" y="-99.8" font-family="Times,serif" font-size="14.00" fill="#000000">SearchComponent</text>
</g>
<!-- SearchComponent&#45;&gt;SharedModule -->
<g id="edge4" class="edge">
<title>SearchComponent&#45;&gt;SharedModule</title>
<path fill="none" stroke="#000000" d="M84,-122.1061C84,-141.3391 84,-169 84,-169 84,-169 227.6002,-169 227.6002,-169"/>
<polygon fill="#000000" stroke="#000000" points="227.6002,-172.5001 237.6002,-169 227.6002,-165.5001 227.6002,-172.5001"/>
</g>
<!-- LoginComponent  -->
<g id="node6" class="node">
<title>LoginComponent </title>
<polygon fill="#fb8072" stroke="#000000" points="346.2759,-252 227.7241,-252 227.7241,-216 346.2759,-216 346.2759,-252"/>
<text text-anchor="middle" x="287" y="-229.8" font-family="Times,serif" font-size="14.00" fill="#000000">LoginComponent </text>
</g>
<!-- SharedModule&#45;&gt;LoginComponent  -->
<g id="edge5" class="edge">
<title>SharedModule&#45;&gt;LoginComponent </title>
<path fill="none" stroke="#000000" stroke-dasharray="5,2" d="M287,-187.1061C287,-187.1061 287,-205.991 287,-205.991"/>
<polygon fill="#000000" stroke="#000000" points="283.5001,-205.9909 287,-215.991 290.5001,-205.991 283.5001,-205.9909"/>
</g>
</g>
</svg>
