<?xml version="1.0" encoding="UTF-8" standalone="no"?>
<!DOCTYPE svg PUBLIC "-//W3C//DTD SVG 1.1//EN"
 "http://www.w3.org/Graphics/SVG/1.1/DTD/svg11.dtd">
<!-- Generated by graphviz version 2.40.1 (20161225.0304)
 -->
<!-- Title: dependencies Pages: 1 -->
<svg width="539pt" height="211pt"
 viewBox="0.00 0.00 539.00 211.00" xmlns="http://www.w3.org/2000/svg" xmlns:xlink="http://www.w3.org/1999/xlink">
<g id="graph0" class="graph" transform="scale(1 1) rotate(0) translate(4 207)">
<title>dependencies</title>
<polygon fill="#ffffff" stroke="transparent" points="-4,4 -4,-207 535,-207 535,4 -4,4"/>
<text text-anchor="start" x="244.5091" y="-42.4" font-family="sans-serif" font-weight="bold" font-size="14.00" fill="#000000">Legend</text>
<polygon fill="#ffffb3" stroke="transparent" points="31.5,-10 31.5,-30 51.5,-30 51.5,-10 31.5,-10"/>
<text text-anchor="start" x="55.129" y="-15.4" font-family="sans-serif" font-size="14.00" fill="#000000"> &#160;Declarations</text>
<polygon fill="#8dd3c7" stroke="transparent" points="144.5,-10 144.5,-30 164.5,-30 164.5,-10 144.5,-10"/>
<text text-anchor="start" x="168.2251" y="-15.4" font-family="sans-serif" font-size="14.00" fill="#000000"> &#160;Module</text>
<polygon fill="#80b1d3" stroke="transparent" points="230.5,-10 230.5,-30 250.5,-30 250.5,-10 230.5,-10"/>
<text text-anchor="start" x="254.2812" y="-15.4" font-family="sans-serif" font-size="14.00" fill="#000000"> &#160;Bootstrap</text>
<polygon fill="#fdb462" stroke="transparent" points="327.5,-10 327.5,-30 347.5,-30 347.5,-10 327.5,-10"/>
<text text-anchor="start" x="351.1732" y="-15.4" font-family="sans-serif" font-size="14.00" fill="#000000"> &#160;Providers</text>
<polygon fill="#fb8072" stroke="transparent" points="423.5,-10 423.5,-30 443.5,-30 443.5,-10 423.5,-10"/>
<text text-anchor="start" x="447.2258" y="-15.4" font-family="sans-serif" font-size="14.00" fill="#000000"> &#160;Exports</text>
<g id="clust1" class="cluster">
<title>cluster_GiftModule</title>
<polygon fill="none" stroke="#000000" stroke-dasharray="1,5" points="8,-70 8,-195 523,-195 523,-70 8,-70"/>
</g>
<g id="clust2" class="cluster">
<title>cluster_GiftModule_declarations</title>
<polygon fill="none" stroke="#000000" points="16,-78 16,-130 515,-130 515,-78 16,-78"/>
</g>
<!-- GiftCardComponent -->
<g id="node1" class="node">
<title>GiftCardComponent</title>
<polygon fill="#ffffb3" stroke="#000000" points="506.5926,-122 375.4074,-122 375.4074,-86 506.5926,-86 506.5926,-122"/>
<text text-anchor="middle" x="441" y="-99.8" font-family="Times,serif" font-size="14.00" fill="#000000">GiftCardComponent</text>
</g>
<!-- GiftModule -->
<g id="node4" class="node">
<title>GiftModule</title>
<polygon fill="#8dd3c7" stroke="#000000" points="314.0983,-187 311.0983,-191 290.0983,-191 287.0983,-187 231.9017,-187 231.9017,-151 314.0983,-151 314.0983,-187"/>
<text text-anchor="middle" x="273" y="-164.8" font-family="Times,serif" font-size="14.00" fill="#000000">GiftModule</text>
</g>
<!-- GiftCardComponent&#45;&gt;GiftModule -->
<g id="edge1" class="edge">
<title>GiftCardComponent&#45;&gt;GiftModule</title>
<path fill="none" stroke="#000000" d="M441,-122.1061C441,-141.3391 441,-169 441,-169 441,-169 324.0974,-169 324.0974,-169"/>
<polygon fill="#000000" stroke="#000000" points="324.0975,-165.5001 314.0974,-169 324.0974,-172.5001 324.0975,-165.5001"/>
</g>
<!-- GiftDescriptionComponent -->
<g id="node2" class="node">
<title>GiftDescriptionComponent</title>
<polygon fill="#ffffb3" stroke="#000000" points="357.6937,-122 188.3063,-122 188.3063,-86 357.6937,-86 357.6937,-122"/>
<text text-anchor="middle" x="273" y="-99.8" font-family="Times,serif" font-size="14.00" fill="#000000">GiftDescriptionComponent</text>
</g>
<!-- GiftDescriptionComponent&#45;&gt;GiftModule -->
<g id="edge2" class="edge">
<title>GiftDescriptionComponent&#45;&gt;GiftModule</title>
<path fill="none" stroke="#000000" d="M273,-122.1061C273,-122.1061 273,-140.991 273,-140.991"/>
<polygon fill="#000000" stroke="#000000" points="269.5001,-140.9909 273,-150.991 276.5001,-140.991 269.5001,-140.9909"/>
</g>
<!-- GiftReviewComponent -->
<g id="node3" class="node">
<title>GiftReviewComponent</title>
<polygon fill="#ffffb3" stroke="#000000" points="170.1442,-122 23.8558,-122 23.8558,-86 170.1442,-86 170.1442,-122"/>
<text text-anchor="middle" x="97" y="-99.8" font-family="Times,serif" font-size="14.00" fill="#000000">GiftReviewComponent</text>
</g>
<!-- GiftReviewComponent&#45;&gt;GiftModule -->
<g id="edge3" class="edge">
<title>GiftReviewComponent&#45;&gt;GiftModule</title>
<path fill="none" stroke="#000000" d="M97,-122.1061C97,-141.3391 97,-169 97,-169 97,-169 221.7358,-169 221.7358,-169"/>
<polygon fill="#000000" stroke="#000000" points="221.7359,-172.5001 231.7358,-169 221.7358,-165.5001 221.7359,-172.5001"/>
</g>
</g>
</svg>
