<?xml version="1.0" encoding="UTF-8" standalone="no"?>
<!DOCTYPE svg PUBLIC "-//W3C//DTD SVG 1.1//EN"
 "http://www.w3.org/Graphics/SVG/1.1/DTD/svg11.dtd">
<!-- Generated by graphviz version 2.40.1 (20161225.0304)
 -->
<!-- Title: dependencies Pages: 1 -->
<svg width="605pt" height="211pt"
 viewBox="0.00 0.00 605.00 211.00" xmlns="http://www.w3.org/2000/svg" xmlns:xlink="http://www.w3.org/1999/xlink">
<g id="graph0" class="graph" transform="scale(1 1) rotate(0) translate(4 207)">
<title>dependencies</title>
<polygon fill="#ffffff" stroke="transparent" points="-4,4 -4,-207 601,-207 601,4 -4,4"/>
<text text-anchor="start" x="277.5091" y="-42.4" font-family="sans-serif" font-weight="bold" font-size="14.00" fill="#000000">Legend</text>
<polygon fill="#ffffb3" stroke="transparent" points="64.5,-10 64.5,-30 84.5,-30 84.5,-10 64.5,-10"/>
<text text-anchor="start" x="88.129" y="-15.4" font-family="sans-serif" font-size="14.00" fill="#000000"> &#160;Declarations</text>
<polygon fill="#8dd3c7" stroke="transparent" points="177.5,-10 177.5,-30 197.5,-30 197.5,-10 177.5,-10"/>
<text text-anchor="start" x="201.2251" y="-15.4" font-family="sans-serif" font-size="14.00" fill="#000000"> &#160;Module</text>
<polygon fill="#80b1d3" stroke="transparent" points="263.5,-10 263.5,-30 283.5,-30 283.5,-10 263.5,-10"/>
<text text-anchor="start" x="287.2812" y="-15.4" font-family="sans-serif" font-size="14.00" fill="#000000"> &#160;Bootstrap</text>
<polygon fill="#fdb462" stroke="transparent" points="360.5,-10 360.5,-30 380.5,-30 380.5,-10 360.5,-10"/>
<text text-anchor="start" x="384.1732" y="-15.4" font-family="sans-serif" font-size="14.00" fill="#000000"> &#160;Providers</text>
<polygon fill="#fb8072" stroke="transparent" points="456.5,-10 456.5,-30 476.5,-30 476.5,-10 456.5,-10"/>
<text text-anchor="start" x="480.2258" y="-15.4" font-family="sans-serif" font-size="14.00" fill="#000000"> &#160;Exports</text>
<g id="clust1" class="cluster">
<title>cluster_AdminModule</title>
<polygon fill="none" stroke="#000000" stroke-dasharray="1,5" points="8,-70 8,-195 589,-195 589,-70 8,-70"/>
</g>
<g id="clust2" class="cluster">
<title>cluster_AdminModule_declarations</title>
<polygon fill="none" stroke="#000000" points="16,-78 16,-130 581,-130 581,-78 16,-78"/>
</g>
<!-- AdminDashboardComponent -->
<g id="node1" class="node">
<title>AdminDashboardComponent</title>
<polygon fill="#ffffb3" stroke="#000000" points="573.3613,-122 392.6387,-122 392.6387,-86 573.3613,-86 573.3613,-122"/>
<text text-anchor="middle" x="483" y="-99.8" font-family="Times,serif" font-size="14.00" fill="#000000">AdminDashboardComponent</text>
</g>
<!-- AdminModule -->
<g id="node4" class="node">
<title>AdminModule</title>
<polygon fill="#8dd3c7" stroke="#000000" points="341.4386,-187 338.4386,-191 317.4386,-191 314.4386,-187 242.5614,-187 242.5614,-151 341.4386,-151 341.4386,-187"/>
<text text-anchor="middle" x="292" y="-164.8" font-family="Times,serif" font-size="14.00" fill="#000000">AdminModule</text>
</g>
<!-- AdminDashboardComponent&#45;&gt;AdminModule -->
<g id="edge1" class="edge">
<title>AdminDashboardComponent&#45;&gt;AdminModule</title>
<path fill="none" stroke="#000000" d="M483,-122.1061C483,-141.3391 483,-169 483,-169 483,-169 351.6844,-169 351.6844,-169"/>
<polygon fill="#000000" stroke="#000000" points="351.6844,-165.5001 341.6844,-169 351.6844,-172.5001 351.6844,-165.5001"/>
</g>
<!-- AdminGiftListComponent -->
<g id="node2" class="node">
<title>AdminGiftListComponent</title>
<polygon fill="#ffffb3" stroke="#000000" points="374.0476,-122 209.9524,-122 209.9524,-86 374.0476,-86 374.0476,-122"/>
<text text-anchor="middle" x="292" y="-99.8" font-family="Times,serif" font-size="14.00" fill="#000000">AdminGiftListComponent</text>
</g>
<!-- AdminGiftListComponent&#45;&gt;AdminModule -->
<g id="edge2" class="edge">
<title>AdminGiftListComponent&#45;&gt;AdminModule</title>
<path fill="none" stroke="#000000" d="M292,-122.1061C292,-122.1061 292,-140.991 292,-140.991"/>
<polygon fill="#000000" stroke="#000000" points="288.5001,-140.9909 292,-150.991 295.5001,-140.991 288.5001,-140.9909"/>
</g>
<!-- AdminUserListComponent -->
<g id="node3" class="node">
<title>AdminUserListComponent</title>
<polygon fill="#ffffb3" stroke="#000000" points="192.4255,-122 23.5745,-122 23.5745,-86 192.4255,-86 192.4255,-122"/>
<text text-anchor="middle" x="108" y="-99.8" font-family="Times,serif" font-size="14.00" fill="#000000">AdminUserListComponent</text>
</g>
<!-- AdminUserListComponent&#45;&gt;AdminModule -->
<g id="edge3" class="edge">
<title>AdminUserListComponent&#45;&gt;AdminModule</title>
<path fill="none" stroke="#000000" d="M108,-122.1061C108,-141.3391 108,-169 108,-169 108,-169 232.6914,-169 232.6914,-169"/>
<polygon fill="#000000" stroke="#000000" points="232.6914,-172.5001 242.6914,-169 232.6913,-165.5001 232.6914,-172.5001"/>
</g>
</g>
</svg>
